<svg width="48" height="48" viewBox="0 0 48 48" fill="none" xmlns="http://www.w3.org/2000/svg">
<g id="icon_profile">
<path id="Subtract" fill-rule="evenodd" clip-rule="evenodd" d="M48 24C48 37.2548 37.2548 48 24 48C10.7452 48 0 37.2548 0 24C0 10.7452 10.7452 0 24 0C37.2548 0 48 10.7452 48 24ZM32.0001 13.3337C32.0001 17.752 28.4183 21.3337 24.0001 21.3337C19.5818 21.3337 16.0001 17.752 16.0001 13.3337C16.0001 8.91543 19.5818 5.33371 24.0001 5.33371C28.4183 5.33371 32.0001 8.91543 32.0001 13.3337ZM33.4281 27.9055C35.9286 30.4059 37.3334 33.7973 37.3334 37.3335H24H10.6667C10.6667 33.7973 12.0714 30.4059 14.5719 27.9055C17.0724 25.405 20.4638 24.0002 24 24.0002C27.5362 24.0002 30.9276 25.405 33.4281 27.9055Z" fill="white"/>
</g>
</svg>
