<svg width="48" height="49" viewBox="0 0 48 49" fill="none" xmlns="http://www.w3.org/2000/svg">
<g id="icon_profile">
<path id="Subtract" fill-rule="evenodd" clip-rule="evenodd" d="M48 24.5C48 37.7548 37.2548 48.5 24 48.5C10.7452 48.5 0 37.7548 0 24.5C0 11.2452 10.7452 0.5 24 0.5C37.2548 0.5 48 11.2452 48 24.5ZM32.0001 13.8337C32.0001 18.252 28.4183 21.8337 24.0001 21.8337C19.5818 21.8337 16.0001 18.252 16.0001 13.8337C16.0001 9.41543 19.5818 5.83371 24.0001 5.83371C28.4183 5.83371 32.0001 9.41543 32.0001 13.8337ZM33.4281 28.4055C35.9286 30.9059 37.3334 34.2973 37.3334 37.8335H24H10.6667C10.6667 34.2973 12.0714 30.9059 14.5719 28.4055C17.0724 25.905 20.4638 24.5002 24 24.5002C27.5362 24.5002 30.9276 25.905 33.4281 28.4055Z" fill="black"/>
</g>
</svg>
